<?xml version="1.0" standalone="no"?>
<!DOCTYPE svg PUBLIC "-//W3C//DTD SVG 20010904//EN"
 "http://www.w3.org/TR/2001/REC-SVG-20010904/DTD/svg10.dtd">
<svg version="1.0" xmlns="http://www.w3.org/2000/svg"
 width="300.000000pt" height="300.000000pt" viewBox="0 0 300.000000 300.000000"
 preserveAspectRatio="xMidYMid meet">
<metadata>
Created by potrace 1.11, written by Peter Selinger 2001-2013
</metadata>
<g transform="translate(0.000000,300.000000) scale(0.100000,-0.100000)"
fill="#000000" stroke="none">
<path d="M0 2088 c0 -502 4 -908 8 -902 16 17 43 118 57 209 18 118 21 125 56
125 16 0 29 -4 29 -10 0 -5 9 -10 20 -10 11 0 20 -4 20 -10 0 -5 9 -10 19 -10
11 0 22 -6 24 -12 4 -10 8 -9 16 2 8 12 13 11 31 -9 11 -14 23 -21 27 -17 4 4
1 11 -7 16 -8 5 -11 12 -7 16 4 4 15 -3 26 -14 10 -12 30 -22 45 -22 14 0 26
-4 26 -10 0 -5 7 -10 15 -10 9 0 19 -8 22 -17 4 -10 15 -25 25 -34 19 -17 25
-69 8 -69 -5 0 -10 -9 -10 -20 0 -13 -7 -20 -20 -20 -13 0 -20 -7 -20 -20 0
-13 7 -20 20 -20 13 0 20 7 20 20 0 13 7 20 20 20 12 0 20 -7 20 -16 0 -9 13
-29 30 -44 29 -27 42 -80 20 -80 -5 0 -10 12 -10 26 0 14 -7 32 -15 40 -13 14
-17 14 -30 0 -17 -16 -21 -86 -5 -86 6 0 10 5 10 10 0 6 5 10 10 10 6 0 10
-18 10 -40 0 -22 5 -40 10 -40 6 0 10 -7 10 -16 0 -11 6 -14 20 -9 15 5 20 2
20 -12 0 -10 9 -25 20 -33 21 -15 28 -70 10 -70 -18 0 -11 -35 10 -50 15 -11
20 -26 20 -62 0 -26 5 -48 10 -48 6 0 10 -7 10 -16 0 -12 -6 -15 -26 -10 -40
10 -58 0 -99 -60 -37 -54 -38 -57 -20 -70 19 -14 26 -16 85 -18 29 -1 35 -5
38 -26 7 -58 34 -117 62 -139 17 -12 30 -28 30 -35 0 -7 18 -21 40 -31 22 -10
47 -26 56 -36 10 -11 22 -19 28 -19 21 0 64 -46 63 -65 -2 -18 4 -20 61 -17
40 3 62 0 62 -7 0 -6 -4 -11 -10 -11 -5 0 -10 -9 -10 -20 0 -11 -4 -20 -10
-20 -15 0 -12 -29 4 -46 8 -8 22 -14 30 -14 9 0 16 -4 16 -10 0 -5 -4 -10 -10
-10 -15 0 -12 -29 4 -46 12 -12 157 -14 985 -14 l971 0 0 1500 0 1500 -930 0
c-719 0 -935 -3 -950 -12 -15 -10 -22 -10 -32 0 -9 9 -139 12 -550 12 l-538 0
0 -912z m2454 841 c37 -22 26 -24 -29 -5 -21 8 -41 19 -43 26 -5 15 29 5 72
-21z m-2124 -222 c14 -3 33 -5 43 -6 33 -2 17 -16 -34 -28 -55 -13 -69 -11
-69 13 0 8 -7 14 -16 14 -10 0 -14 -6 -10 -15 7 -21 -32 -29 -78 -17 -25 7
-36 7 -36 0 0 -6 -2 -9 -5 -6 -3 3 -1 17 5 32 10 28 10 28 93 22 45 -3 93 -7
107 -9z m175 -17 c-3 -5 -26 -10 -51 -10 -24 0 -44 5 -44 10 0 6 23 10 51 10
31 0 48 -4 44 -10z m1225 -486 c22 -4 44 -18 60 -37 l25 -31 3 -396 c1 -217
-1 -423 -4 -457 -5 -62 -6 -63 -35 -63 -25 0 -29 -4 -29 -29 0 -22 -6 -30 -22
-34 -13 -3 -125 -9 -249 -13 -250 -7 -269 -4 -269 46 0 16 6 32 13 37 14 9
432 7 490 -3 l37 -6 0 120 0 119 -182 -3 c-101 -2 -229 -4 -285 -4 l-103 0 0
-218 0 -219 271 -7 c151 -3 279 -11 290 -17 12 -6 19 -20 19 -38 0 -39 -13
-41 -335 -41 l-273 0 -35 35 -35 35 4 456 c3 251 7 461 10 465 3 5 16 9 30 9
17 0 24 6 24 19 0 39 17 41 286 39 l259 -3 0 -35 0 -35 -257 -3 -258 -2 0
-109 0 -109 64 -7 c68 -8 166 1 166 15 0 15 44 19 60 5 11 -10 51 -14 145 -16
l130 -2 0 224 0 224 -290 5 -290 5 -3 28 c-7 59 -15 57 270 57 145 0 279 -3
298 -6z m-35 -153 c0 -28 -4 -36 -25 -41 -14 -4 -133 -6 -264 -6 l-239 1 -10
28 c-18 56 -12 58 277 55 l261 -3 0 -34z m209 6 c23 -23 23 -26 28 -333 3
-170 3 -353 0 -406 l-5 -98 -27 0 -28 0 -5 103 c-3 56 -4 152 -3 212 0 61 2
208 4 328 1 119 4 217 7 217 3 0 16 -10 29 -23z m121 -108 l35 -31 0 -198 0
-198 33 -6 c42 -9 64 -9 110 -2 42 7 47 -2 17 -29 -13 -12 -37 -19 -63 -19
-31 -1 -43 -5 -45 -18 -2 -11 -13 -18 -27 -18 -26 0 -33 -25 -38 -145 l-2 -60
-35 0 -35 0 -5 95 c-8 138 1 660 11 660 5 0 24 -14 44 -31z m-1082 -51 c15
-12 16 -48 14 -383 -2 -338 -3 -370 -19 -373 -9 -2 -30 11 -47 29 l-31 32 0
348 c0 268 3 348 13 352 23 10 53 7 70 -5z m115 0 c9 -9 12 -120 12 -440 0
-407 -1 -428 -18 -428 -10 0 -30 13 -45 28 l-27 28 0 405 c0 223 3 409 7 412
11 11 58 8 71 -5z m645 -784 c28 -4 41 -13 49 -30 22 -47 8 -49 -275 -49
l-262 0 -3 31 c-4 39 12 51 68 57 54 5 370 -2 423 -9z m-63 -682 c0 -16 -37
-52 -52 -52 -15 0 -45 27 -37 33 30 21 89 34 89 19z"/>
<path d="M1180 1560 c0 -19 7 -20 119 -20 66 0 122 4 126 9 12 20 -37 31 -139
31 -99 0 -106 -1 -106 -20z"/>
<path d="M110 1440 c0 -11 5 -20 10 -20 6 0 10 9 10 20 0 11 -4 20 -10 20 -5
0 -10 -9 -10 -20z"/>
<path d="M110 1350 c0 -5 5 -10 10 -10 6 0 10 5 10 10 0 6 -4 10 -10 10 -5 0
-10 -4 -10 -10z"/>
</g>
</svg>
